<svg width="222" height="27" viewBox="0 0 222 27" fill="none" xmlns="http://www.w3.org/2000/svg">
<path d="M20.1122 0.799998V6.2H12.9122V26H7.51215V6.2H0.312154V0.799998H20.1122ZM23.7799 26V0.799998H39.8359V6.2H29.1799V9.8H37.3879V15.2H29.1799V20.6H39.8359V26H23.7799ZM55.5198 26.468C53.8158 26.468 52.2138 26.132 50.7138 25.46C49.2138 24.776 47.8938 23.834 46.7538 22.634C45.6258 21.434 44.7378 20.048 44.0898 18.476C43.4538 16.892 43.1358 15.2 43.1358 13.4C43.1358 11.588 43.4538 9.896 44.0898 8.324C44.7378 6.74 45.6258 5.354 46.7538 4.166C47.8938 2.966 49.2138 2.03 50.7138 1.358C52.2138 0.673998 53.8158 0.331998 55.5198 0.331998C57.5598 0.331998 59.4378 0.805998 61.1538 1.754C62.8698 2.69 64.2918 3.944 65.4198 5.516L60.5958 8.108C59.9718 7.388 59.2218 6.812 58.3458 6.38C57.4698 5.948 56.5278 5.732 55.5198 5.732C54.5598 5.732 53.6538 5.93 52.8018 6.326C51.9618 6.722 51.2178 7.274 50.5698 7.982C49.9338 8.678 49.4358 9.488 49.0758 10.412C48.7158 11.336 48.5358 12.332 48.5358 13.4C48.5358 14.456 48.7158 15.446 49.0758 16.37C49.4358 17.294 49.9338 18.11 50.5698 18.818C51.2178 19.514 51.9618 20.066 52.8018 20.474C53.6538 20.87 54.5598 21.068 55.5198 21.068C56.5278 21.068 57.4698 20.852 58.3458 20.42C59.2218 19.976 59.9718 19.388 60.5958 18.656L65.4198 21.284C64.2918 22.844 62.8698 24.098 61.1538 25.046C59.4378 25.994 57.5598 26.468 55.5198 26.468ZM83.041 0.799998H88.441V26H83.041V15.2H74.113V26H68.713V0.799998H74.113V9.8H83.041V0.799998ZM104.496 26.468C102.792 26.468 101.19 26.132 99.6899 25.46C98.1899 24.776 96.8699 23.834 95.7299 22.634C94.6019 21.434 93.7139 20.048 93.0659 18.476C92.4299 16.892 92.1119 15.2 92.1119 13.4C92.1119 11.588 92.4299 9.896 93.0659 8.324C93.7139 6.74 94.6019 5.354 95.7299 4.166C96.8699 2.966 98.1899 2.03 99.6899 1.358C101.19 0.673998 102.792 0.331998 104.496 0.331998C106.536 0.331998 108.414 0.805998 110.13 1.754C111.846 2.69 113.268 3.944 114.396 5.516L109.572 8.108C108.948 7.388 108.198 6.812 107.322 6.38C106.446 5.948 105.504 5.732 104.496 5.732C103.536 5.732 102.63 5.93 101.778 6.326C100.938 6.722 100.194 7.274 99.5459 7.982C98.9099 8.678 98.4119 9.488 98.0519 10.412C97.6919 11.336 97.5119 12.332 97.5119 13.4C97.5119 14.456 97.6919 15.446 98.0519 16.37C98.4119 17.294 98.9099 18.11 99.5459 18.818C100.194 19.514 100.938 20.066 101.778 20.474C102.63 20.87 103.536 21.068 104.496 21.068C105.504 21.068 106.446 20.852 107.322 20.42C108.198 19.976 108.948 19.388 109.572 18.656L114.396 21.284C113.268 22.844 111.846 24.098 110.13 25.046C108.414 25.994 106.536 26.468 104.496 26.468ZM117.689 26V0.799998H127.949C129.329 0.799998 130.577 1.148 131.693 1.844C132.809 2.54 133.691 3.476 134.339 4.652C134.999 5.816 135.329 7.1 135.329 8.504C135.329 9.584 135.149 10.592 134.789 11.528C134.429 12.452 133.913 13.274 133.241 13.994C132.581 14.702 131.801 15.272 130.901 15.704L136.877 26H130.649L124.961 16.208H123.089V26H117.689ZM123.089 10.808H127.301C127.781 10.808 128.219 10.688 128.615 10.448C129.011 10.196 129.329 9.866 129.569 9.458C129.809 9.05 129.929 8.6 129.929 8.108C129.929 7.616 129.809 7.166 129.569 6.758C129.329 6.35 129.011 6.026 128.615 5.786C128.219 5.534 127.781 5.408 127.301 5.408H123.089V10.808ZM150.801 26.468C149.097 26.468 147.495 26.132 145.995 25.46C144.495 24.776 143.175 23.834 142.035 22.634C140.895 21.434 140.001 20.048 139.353 18.476C138.705 16.892 138.381 15.2 138.381 13.4C138.381 11.6 138.705 9.914 139.353 8.342C140.001 6.758 140.895 5.366 142.035 4.166C143.175 2.966 144.495 2.03 145.995 1.358C147.495 0.673998 149.097 0.331998 150.801 0.331998C152.517 0.331998 154.125 0.673998 155.625 1.358C157.125 2.03 158.445 2.966 159.585 4.166C160.725 5.366 161.613 6.758 162.249 8.342C162.897 9.914 163.221 11.6 163.221 13.4C163.221 15.2 162.897 16.892 162.249 18.476C161.613 20.048 160.725 21.434 159.585 22.634C158.445 23.834 157.125 24.776 155.625 25.46C154.125 26.132 152.517 26.468 150.801 26.468ZM150.801 21.068C151.761 21.068 152.661 20.87 153.501 20.474C154.353 20.066 155.103 19.514 155.751 18.818C156.399 18.11 156.903 17.294 157.263 16.37C157.635 15.446 157.821 14.456 157.821 13.4C157.821 12.344 157.635 11.354 157.263 10.43C156.903 9.506 156.399 8.696 155.751 8C155.103 7.292 154.353 6.74 153.501 6.344C152.661 5.936 151.761 5.732 150.801 5.732C149.841 5.732 148.935 5.936 148.083 6.344C147.243 6.74 146.499 7.292 145.851 8C145.203 8.696 144.693 9.506 144.321 10.43C143.961 11.354 143.781 12.344 143.781 13.4C143.781 14.456 143.961 15.446 144.321 16.37C144.693 17.294 145.203 18.11 145.851 18.818C146.499 19.514 147.243 20.066 148.083 20.474C148.935 20.87 149.841 21.068 150.801 21.068ZM171.519 26L165.075 0.799998H170.655L174.543 16.064L178.431 0.799998H183.399L187.287 16.064L191.175 0.799998H196.755L190.347 26H184.263L180.915 12.932L177.603 26H171.519ZM200.1 26V0.799998H208.452C210.192 0.799998 211.818 1.13 213.33 1.79C214.854 2.438 216.192 3.344 217.344 4.508C218.508 5.66 219.414 6.998 220.062 8.522C220.722 10.034 221.052 11.66 221.052 13.4C221.052 15.14 220.722 16.772 220.062 18.296C219.414 19.808 218.508 21.146 217.344 22.31C216.192 23.462 214.854 24.368 213.33 25.028C211.818 25.676 210.192 26 208.452 26H200.1ZM205.5 20.6H208.452C209.424 20.6 210.342 20.414 211.206 20.042C212.07 19.67 212.838 19.154 213.51 18.494C214.182 17.834 214.704 17.072 215.076 16.208C215.46 15.332 215.652 14.396 215.652 13.4C215.652 12.404 215.46 11.474 215.076 10.61C214.704 9.746 214.182 8.984 213.51 8.324C212.85 7.652 212.088 7.13 211.224 6.758C210.36 6.386 209.436 6.2 208.452 6.2H205.5V20.6Z" fill="black"/>
</svg>
